<svg xmlns="http://www.w3.org/2000/svg" width="500" height="200" viewBox="0 0 500 200"><g transform="translate(171,84)translate(100.5,33)rotate(0)translate(-100.5,-33)" opacity="1"><path transform="translate(7,0)rotate(0)" d="M33.91 14.39L33.91 20.48L20.48 20.48L20.48 48L14.39 48L14.39 20.48L0.94 20.48L0.94 14.39L33.91 14.39ZM71.37 17.46L71.37 48L65.27 48L65.27 39.75L43.85 39.75L43.85 48L37.76 48L37.76 31.20L37.76 31.20Q37.76 27.52 39.02 24.42L39.02 24.42L39.02 24.42Q40.29 21.33 42.54 19.10L42.54 19.10L42.54 19.10Q44.79 16.88 47.86 15.63L47.86 15.63L47.86 15.63Q50.93 14.39 54.56 14.39L54.56 14.39L68.30 14.39L68.30 14.39Q68.93 14.39 69.49 14.63L69.49 14.63L69.49 14.63Q70.05 14.86 70.48 15.28L70.48 15.28L70.48 15.28Q70.90 15.70 71.13 16.27L71.13 16.27L71.13 16.27Q71.37 16.83 71.37 17.46L71.37 17.46ZM43.85 31.20L43.85 33.66L65.27 33.66L65.27 20.48L54.56 20.48L54.56 20.48Q54.28 20.48 53.38 20.57L53.38 20.57L53.38 20.57Q52.48 20.65 51.29 20.98L51.29 20.98L51.29 20.98Q50.11 21.30 48.80 21.98L48.80 21.98L48.80 21.98Q47.48 22.66 46.38 23.86L46.38 23.86L46.38 23.86Q45.28 25.05 44.57 26.85L44.57 26.85L44.57 26.85Q43.85 28.64 43.85 31.20L43.85 31.20ZM111.98 39.45L111.98 40.62L111.98 40.62Q111.98 41.74 111.60 43.03L111.60 43.03L111.60 43.03Q111.21 44.32 110.33 45.42L110.33 45.42L110.33 45.42Q109.45 46.52 108.05 47.26L108.05 47.26L108.05 47.26Q106.64 48 104.60 48L104.60 48L81.47 48L81.47 48Q80.81 48 80.25 47.77L80.25 47.77L80.25 47.77Q79.69 47.53 79.28 47.12L79.28 47.12L79.28 47.12Q78.87 46.71 78.63 46.15L78.63 46.15L78.63 46.15Q78.40 45.59 78.40 44.93L78.40 44.93L78.40 17.46L78.40 17.46Q78.40 16.83 78.63 16.27L78.63 16.27L78.63 16.27Q78.87 15.70 79.28 15.28L79.28 15.28L79.28 15.28Q79.69 14.86 80.25 14.63L80.25 14.63L80.25 14.63Q80.81 14.39 81.47 14.39L81.47 14.39L101.86 14.39L101.86 14.39Q102.98 14.39 104.27 14.79L104.27 14.79L104.27 14.79Q105.56 15.19 106.68 16.07L106.68 16.07L106.68 16.07Q107.79 16.95 108.53 18.35L108.53 18.35L108.53 18.35Q109.27 19.76 109.27 21.80L109.27 21.80L109.27 22.95L109.27 22.95Q109.27 24.56 108.73 26.43L108.73 26.43L108.73 26.43Q108.19 28.29 106.99 29.95L106.99 29.95L106.99 29.95Q108.02 30.59 108.93 31.48L108.93 31.48L108.93 31.48Q109.83 32.37 110.51 33.54L110.51 33.54L110.51 33.54Q111.19 34.71 111.59 36.19L111.59 36.19L111.59 36.19Q111.98 37.66 111.98 39.45L111.98 39.45ZM105.89 40.57L105.89 39.45L105.89 39.45Q105.89 38.25 105.52 37.30L105.52 37.30L105.52 37.30Q105.14 36.35 104.46 35.67L104.46 35.67L104.46 35.67Q103.78 34.99 102.82 34.63L102.82 34.63L102.82 34.63Q101.86 34.27 100.66 34.27L100.66 34.27L86.93 34.27L86.93 28.13L97.92 28.13L97.92 28.13Q99.12 28.13 100.08 27.76L100.08 27.76L100.08 27.76Q101.04 27.40 101.72 26.72L101.72 26.72L101.72 26.72Q102.40 26.04 102.76 25.09L102.76 25.09L102.76 25.09Q103.13 24.14 103.13 22.95L103.13 22.95L103.13 21.80L103.13 21.80Q103.13 20.48 101.86 20.48L101.86 20.48L84.49 20.48L84.49 41.91L104.60 41.91L104.60 41.91Q104.77 41.91 105 41.88L105 41.88L105 41.88Q105.23 41.86 105.42 41.74L105.42 41.74L105.42 41.74Q105.61 41.63 105.75 41.34L105.75 41.34L105.75 41.34Q105.89 41.06 105.89 40.57L105.89 40.57ZM150.26 17.46L150.26 48L144.16 48L144.16 39.75L122.74 39.75L122.74 48L116.65 48L116.65 31.20L116.65 31.20Q116.65 27.52 117.91 24.42L117.91 24.42L117.91 24.42Q119.18 21.33 121.43 19.10L121.43 19.10L121.43 19.10Q123.68 16.88 126.75 15.63L126.75 15.63L126.75 15.63Q129.82 14.39 133.45 14.39L133.45 14.39L147.19 14.39L147.19 14.39Q147.82 14.39 148.38 14.63L148.38 14.63L148.38 14.63Q148.95 14.86 149.37 15.28L149.37 15.28L149.37 15.28Q149.79 15.70 150.02 16.27L150.02 16.27L150.02 16.27Q150.26 16.83 150.26 17.46L150.26 17.46ZM122.74 31.20L122.74 33.66L144.16 33.66L144.16 20.48L133.45 20.48L133.45 20.48Q133.17 20.48 132.27 20.57L132.27 20.57L132.27 20.57Q131.37 20.65 130.18 20.98L130.18 20.98L130.18 20.98Q129 21.30 127.69 21.98L127.69 21.98L127.69 21.98Q126.38 22.66 125.27 23.86L125.27 23.86L125.27 23.86Q124.17 25.05 123.46 26.85L123.46 26.85L123.46 26.85Q122.74 28.64 122.74 31.20L122.74 31.20ZM187.71 14.39L187.71 20.48L174.28 20.48L174.28 48L168.19 48L168.19 20.48L154.73 20.48L154.73 14.39L187.71 14.39Z" fill="#5F5F5F"/></g><g transform="translate(244,140)translate(103.5,13.5)rotate(0)translate(-103.5,-13.5)" opacity="1"><path transform="translate(6,0)rotate(0)" d="M12.04 11.62L12.04 18.60L12.04 18.60Q9.44 19.20 7.26 19.20L7.26 19.20L7.26 19.20Q6.44 19.20 5.71 19.13L5.71 19.13L5.71 19.13Q4.98 19.06 4.14 18.83L4.14 18.83L4.14 18.83Q3.30 18.60 2.69 18.23L2.69 18.23L2.69 18.23Q2.08 17.86 1.68 17.20L1.68 17.20L1.68 17.20Q1.28 16.54 1.28 15.68L1.28 15.68L1.28 9.54L1.28 9.54Q1.28 8.40 1.87 7.61L1.87 7.61L1.87 7.61Q2.46 6.82 3.46 6.46L3.46 6.46L3.46 6.46Q4.46 6.10 5.36 5.96L5.36 5.96L5.36 5.96Q6.26 5.82 7.26 5.82L7.26 5.82L7.26 5.82Q9.66 5.82 11.74 6.14L11.74 6.14L11.74 7.64L11.74 7.64Q10.98 7.46 9.56 7.31L9.56 7.31L9.56 7.31Q8.14 7.16 7.30 7.16L7.30 7.16L7.30 7.16Q3.20 7.16 3.20 9.52L3.20 9.52L3.20 15.64L3.20 15.64Q3.20 16.30 3.59 16.77L3.59 16.77L3.59 16.77Q3.98 17.24 4.65 17.47L4.65 17.47L4.65 17.47Q5.32 17.70 5.97 17.79L5.97 17.79L5.97 17.79Q6.62 17.88 7.38 17.88L7.38 17.88L7.38 17.88Q8.72 17.88 10.24 17.52L10.24 17.52L10.24 12.98L7.20 12.98L7.20 11.62L12.04 11.62ZM27.82 8.58L27.82 8.58L27.82 11.28L27.82 11.28Q27.82 12.94 26.53 13.63L26.53 13.63L26.53 13.63Q25.24 14.32 22.88 14.32L22.88 14.32L20.94 14.32L20.94 19L19 19L19 6.02L23.24 6.02L23.24 6.02Q24.04 6.02 24.62 6.06L24.62 6.06L24.62 6.06Q25.20 6.10 25.85 6.25L25.85 6.25L25.85 6.25Q26.50 6.40 26.89 6.67L26.89 6.67L26.89 6.67Q27.28 6.94 27.55 7.42L27.55 7.42L27.55 7.42Q27.82 7.90 27.82 8.58ZM25.92 11.18L25.92 11.18L25.92 8.82L25.92 8.82Q25.92 8.28 25.64 7.93L25.64 7.93L25.64 7.93Q25.36 7.58 24.84 7.44L24.84 7.44L24.84 7.44Q24.32 7.30 23.97 7.27L23.97 7.27L23.97 7.27Q23.62 7.24 23.10 7.24L23.10 7.24L20.92 7.24L20.92 13.10L23.14 13.10L23.14 13.10Q24.30 13.10 25.11 12.67L25.11 12.67L25.11 12.67Q25.92 12.24 25.92 11.18ZM43 14.60L43 14.60L43 15.54L43 15.54Q43 17.62 41.82 18.41L41.82 18.41L41.82 18.41Q40.64 19.20 38.14 19.20L38.14 19.20L38.14 19.20Q36.54 19.20 34.18 18.88L34.18 18.88L34.18 17.26L34.18 17.26Q36.54 17.76 38.26 17.76L38.26 17.76L38.26 17.76Q39.64 17.76 40.37 17.45L40.37 17.45L40.37 17.45Q41.10 17.14 41.10 16.20L41.10 16.20L41.10 14.52L41.10 14.52Q41.10 13.70 40.63 13.35L40.63 13.35L40.63 13.35Q40.16 13 38.94 13L38.94 13L37.42 13L37.42 13Q35.46 13 34.69 12.21L34.69 12.21L34.69 12.21Q33.92 11.42 33.92 9.88L33.92 9.88L33.92 8.84L33.92 8.84Q33.92 7.30 35.01 6.56L35.01 6.56L35.01 6.56Q36.10 5.82 39.02 5.82L39.02 5.82L39.02 5.82Q40.42 5.82 42.36 6.04L42.36 6.04L42.36 7.50L42.36 7.50Q40.14 7.16 38.88 7.16L38.88 7.16L38.88 7.16Q37.02 7.16 36.41 7.53L36.41 7.53L36.41 7.53Q35.80 7.90 35.80 8.78L35.80 8.78L35.80 10.26L35.80 10.26Q35.80 10.94 36.28 11.25L36.28 11.25L36.28 11.25Q36.76 11.56 37.98 11.56L37.98 11.56L39.54 11.56L39.54 11.56Q41.56 11.56 42.28 12.29L42.28 12.29L42.28 12.29Q43 13.02 43 14.60ZM66.98 14.60L66.98 14.60L66.98 15.54L66.98 15.54Q66.98 17.62 65.80 18.41L65.80 18.41L65.80 18.41Q64.62 19.20 62.12 19.20L62.12 19.20L62.12 19.20Q60.52 19.20 58.16 18.88L58.16 18.88L58.16 17.26L58.16 17.26Q60.52 17.76 62.24 17.76L62.24 17.76L62.24 17.76Q63.62 17.76 64.35 17.45L64.35 17.45L64.35 17.45Q65.08 17.14 65.08 16.20L65.08 16.20L65.08 14.52L65.08 14.52Q65.08 13.70 64.61 13.35L64.61 13.35L64.61 13.35Q64.14 13 62.92 13L62.92 13L61.40 13L61.40 13Q59.44 13 58.67 12.21L58.67 12.21L58.67 12.21Q57.90 11.42 57.90 9.88L57.90 9.88L57.90 8.84L57.90 8.84Q57.90 7.30 58.99 6.56L58.99 6.56L58.99 6.56Q60.08 5.82 63 5.82L63 5.82L63 5.82Q64.40 5.82 66.34 6.04L66.34 6.04L66.34 7.50L66.34 7.50Q64.12 7.16 62.86 7.16L62.86 7.16L62.86 7.16Q61 7.16 60.39 7.53L60.39 7.53L60.39 7.53Q59.78 7.90 59.78 8.78L59.78 8.78L59.78 10.26L59.78 10.26Q59.78 10.94 60.26 11.25L60.26 11.25L60.26 11.25Q60.74 11.56 61.96 11.56L61.96 11.56L63.52 11.56L63.52 11.56Q65.54 11.56 66.26 12.29L66.26 12.29L66.26 12.29Q66.98 13.02 66.98 14.60ZM84.34 9.52L84.34 9.52L84.34 15.68L84.34 15.68Q84.34 16.74 83.83 17.48L83.83 17.48L83.83 17.48Q83.32 18.22 82.44 18.57L82.44 18.57L82.44 18.57Q81.56 18.92 80.70 19.06L80.70 19.06L80.70 19.06Q79.84 19.20 78.84 19.20L78.84 19.20L78.84 19.20Q73.40 19.20 73.40 15.68L73.40 15.68L73.40 9.54L73.40 9.54Q73.40 5.82 78.84 5.82L78.84 5.82L78.84 5.82Q84.34 5.82 84.34 9.52ZM82.46 15.66L82.46 15.66L82.46 9.48L82.46 9.48Q82.46 7.08 78.86 7.08L78.86 7.08L78.86 7.08Q78.10 7.08 77.52 7.17L77.52 7.17L77.52 7.17Q76.94 7.26 76.40 7.51L76.40 7.51L76.40 7.51Q75.86 7.76 75.56 8.25L75.56 8.25L75.56 8.25Q75.26 8.74 75.26 9.48L75.26 9.48L75.26 15.66L75.26 15.66Q75.26 17.90 78.88 17.90L78.88 17.90L78.88 17.90Q82.46 17.90 82.46 15.66ZM99.66 17.64L99.66 19L91.34 19L91.34 6.02L93.28 6.02L93.28 17.64L99.66 17.64ZM114.02 6.02L115.88 6.02L115.88 15.68L115.88 15.68Q115.88 19.20 110.80 19.20L110.80 19.20L110.80 19.20Q109.78 19.20 108.98 19.07L108.98 19.07L108.98 19.07Q108.18 18.94 107.40 18.59L107.40 18.59L107.40 18.59Q106.62 18.24 106.18 17.50L106.18 17.50L106.18 17.50Q105.74 16.76 105.74 15.68L105.74 15.68L105.74 6.02L107.60 6.02L107.60 15.66L107.60 15.66Q107.60 16.94 108.46 17.42L108.46 17.42L108.46 17.42Q109.32 17.90 110.84 17.90L110.84 17.90L110.84 17.90Q112.36 17.90 113.19 17.42L113.19 17.42L113.19 17.42Q114.02 16.94 114.02 15.66L114.02 15.66L114.02 6.02ZM132.80 6.02L132.80 7.38L128.42 7.38L128.42 19L126.46 19L126.46 7.38L122.06 7.38L122.06 6.02L132.80 6.02ZM140.90 6.02L140.90 19L138.96 19L138.96 6.02L140.90 6.02ZM158.84 9.52L158.84 9.52L158.84 15.68L158.84 15.68Q158.84 16.74 158.33 17.48L158.33 17.48L158.33 17.48Q157.82 18.22 156.94 18.57L156.94 18.57L156.94 18.57Q156.06 18.92 155.20 19.06L155.20 19.06L155.20 19.06Q154.34 19.20 153.34 19.20L153.34 19.20L153.34 19.20Q147.90 19.20 147.90 15.68L147.90 15.68L147.90 9.54L147.90 9.54Q147.90 5.82 153.34 5.82L153.34 5.82L153.34 5.82Q158.84 5.82 158.84 9.52ZM156.96 15.66L156.96 15.66L156.96 9.48L156.96 9.48Q156.96 7.08 153.36 7.08L153.36 7.08L153.36 7.08Q152.60 7.08 152.02 7.17L152.02 7.17L152.02 7.17Q151.44 7.26 150.90 7.51L150.90 7.51L150.90 7.51Q150.36 7.76 150.06 8.25L150.06 8.25L150.06 8.25Q149.76 8.74 149.76 9.48L149.76 9.48L149.76 15.66L149.76 15.66Q149.76 17.90 153.38 17.90L153.38 17.90L153.38 17.90Q156.96 17.90 156.96 15.66ZM176.94 6.02L176.94 19L174.60 19L167.54 8.10L167.54 19L165.84 19L165.84 6.02L168.18 6.02L175.24 16.74L175.24 6.02L176.94 6.02ZM192.90 14.60L192.90 14.60L192.90 15.54L192.90 15.54Q192.90 17.62 191.72 18.41L191.72 18.41L191.72 18.41Q190.54 19.20 188.04 19.20L188.04 19.20L188.04 19.20Q186.44 19.20 184.08 18.88L184.08 18.88L184.08 17.26L184.08 17.26Q186.44 17.76 188.16 17.76L188.16 17.76L188.16 17.76Q189.54 17.76 190.27 17.45L190.27 17.45L190.27 17.45Q191.00 17.14 191.00 16.20L191.00 16.20L191.00 14.52L191.00 14.52Q191.00 13.70 190.53 13.35L190.53 13.35L190.53 13.35Q190.06 13 188.84 13L188.84 13L187.32 13L187.32 13Q185.36 13 184.59 12.21L184.59 12.21L184.59 12.21Q183.82 11.42 183.82 9.88L183.82 9.88L183.82 8.84L183.82 8.84Q183.82 7.30 184.91 6.56L184.91 6.56L184.91 6.56Q186.00 5.82 188.92 5.82L188.92 5.82L188.92 5.82Q190.32 5.82 192.26 6.04L192.26 6.04L192.26 7.50L192.26 7.50Q190.04 7.16 188.78 7.16L188.78 7.16L188.78 7.16Q186.92 7.16 186.31 7.53L186.31 7.53L186.31 7.53Q185.70 7.90 185.70 8.78L185.70 8.78L185.70 10.26L185.70 10.26Q185.70 10.94 186.18 11.25L186.18 11.25L186.18 11.25Q186.66 11.56 187.88 11.56L187.88 11.56L189.44 11.56L189.44 11.56Q191.46 11.56 192.18 12.29L192.18 12.29L192.18 12.29Q192.90 13.02 192.90 14.60Z" fill="#212224"/></g><g transform="translate(44,76)translate(66,42)rotate(0)translate(-66,-42) scale(0.9546056104775199,0.9546056104775199)" opacity="1"><defs class="defs"/><path fill="#969696" d="M100.283,15.859c3.904,1.008,8.627,1.6,13.719,1.6c13.406,0,24.275-4.092,24.275-9.137&#10;&#9;c0-3.701-5.853-6.887-14.258-8.322c-0.586,0.773-1.142,1.496-1.662,2.163c4.092,1.026,6.781,2.763,6.781,4.73&#10;&#9;c0,3.154-6.904,5.711-15.423,5.711c-8.516,0-15.422-2.557-15.422-5.711c0-2.043,2.908-3.831,7.267-4.841&#10;&#9;c-0.496-0.637-1.023-1.32-1.576-2.053C95.58,1.436,89.729,4.621,89.729,8.322c0,1.436,0.881,2.792,2.446,4&#10;&#9;c-26.043,5.076-39.559,8.884-39.393,17.76c0.191,10.336,18.977,13.184,42.826,16.796c9.338,1.418,30.402,4.617,34.627,7.822&#10;&#9;c-3.531,1.948-18.824,7.303-84.178,19.25c-2.488-1.9-6.685-3.431-11.832-4.304c-0.586,0.773-1.144,1.496-1.662,2.16&#10;&#9;c4.127,1.025,6.844,2.769,6.844,4.746c0,3.154-6.904,5.711-15.42,5.711s-15.42-2.557-15.42-5.711c0-2.053,2.936-3.848,7.33-4.854&#10;&#9;c-0.496-0.636-1.021-1.316-1.576-2.05C5.881,71.08,0,74.273,0,77.984c0,5.045,10.869,9.137,24.273,9.137&#10;&#9;c12.867,0,23.389-3.77,24.217-8.533c87.438-16.035,87.373-20.389,87.313-23.572c-0.113-6.123-11.722-8.871-39.513-13.089&#10;&#9;c-17.998-2.728-38.395-5.818-38.51-11.936C57.672,24.081,79.908,19.707,100.283,15.859z" class="color c1"/></g><g transform="translate(130,24)translate(22.5,29.5)rotate(0)translate(-22.5,-29.5) scale(0.923171607344343,0.923171607344343)" opacity="1"><defs class="defs"/><path fill="#0ED3BB" d="M24.373,0C10.912,0,0,10.912,0,24.371c0,14.998,21.426,39.72,21.426,39.72c1.619,1.869,4.274,1.869,5.893,0&#10;&#9;c0,0,21.426-24.723,21.426-39.72C48.745,10.912,37.834,0,24.373,0z M24.373,34.664c-5.684,0-10.293-4.609-10.293-10.292&#10;&#9;c0-5.685,4.609-10.289,10.293-10.289c5.686,0,10.292,4.605,10.292,10.289C34.665,30.053,30.059,34.664,24.373,34.664z" class="color c1"/></g><g transform="translate(46,92)translate(22.5,29.5)rotate(0)translate(-22.5,-29.5) scale(0.923171607344343,0.923171607344343)" opacity="1"><defs class="defs"/><path fill="#0ED3BB" d="M24.373,0C10.912,0,0,10.912,0,24.371c0,14.998,21.426,39.72,21.426,39.72c1.619,1.869,4.274,1.869,5.893,0&#10;&#9;c0,0,21.426-24.723,21.426-39.72C48.745,10.912,37.834,0,24.373,0z M24.373,34.664c-5.684,0-10.293-4.609-10.293-10.292&#10;&#9;c0-5.685,4.609-10.289,10.293-10.289c5.686,0,10.292,4.605,10.292,10.289C34.665,30.053,30.059,34.664,24.373,34.664z" class="color c1"/></g><g transform="translate(392,30)translate(25,31.5)rotate(0)translate(-25,-31.5) scale(0.6235729146752598,0.6235729146752598)" opacity="1"><defs class="defs"/><path transform="translate(-0.000300868860731756,0.0004718029349308206)" d="M30.439,65.072c0.999,-5.099 2.728,-9.036 2.206,-14.273c-0.655,-6.554 -8.979,-4.239 -11.201,-3.172c-2.015,0.968 -8.784,5.755 -12.885,10.904c-3.346,4.198 -4.705,8.927 -1.984,14.372c0.58,1.162 2.193,4.065 2.974,4.957c0,0 2.834,5.388 4.462,8.921c1.941,4.219 2.798,9.24 4.559,11.003c2.822,2.821 5.75,2.676 9.417,1.091c2.537,-1.097 4.595,-3.084 5.452,-5.85c1.784,-5.748 -0.681,-9.703 -2.181,-15.043c-0.674,-2.396 -1.253,-10.69 -0.819,-12.91zM12.52,49.041c2.047,-1.023 0.83,-6.203 -2.351,-5.374c-0.946,0.18 -1.532,0.589 -2.024,1.417c-1.177,1.978 2.108,5.09 4.375,3.957zM15.839,45.069c1.554,0.898 2.851,0.076 3.699,-0.54c1.058,-0.769 1.221,-5.19 -1.329,-5.545c-1.446,-0.202 -2.209,0.08 -3.062,1.002c-1.359,1.466 -0.771,4.235 0.692,5.083zM29.304,42.642c3.9,-0.862 5.296,-10.533 0.84,-12.025c-1.725,-0.576 -4.655,0.286 -4.655,0.286c-5.838,2.06 -4.408,13.555 3.815,11.739zM6.562,54.225c0.746,-0.169 1.396,-0.359 1.631,-1.084c0.394,-1.226 -0.146,-4.644 -3.083,-4.194c-3.913,0.601 -0.629,5.746 1.452,5.278zM2.643,55.074c-1.152,-0.157 -2.153,0.43 -2.551,1.467c-0.593,1.542 1.827,3.61 3.325,2.787c0.407,-0.223 0.612,-0.424 0.85,-0.807c0.795,-1.265 -0.088,-3.24 -1.624,-3.447zM58.739,17.208c-2.222,-1.067 -10.546,-3.38 -11.201,3.172c-0.521,5.238 1.209,9.175 2.206,14.272c0.434,2.222 -0.144,10.515 -0.815,12.912c-1.5,5.338 -3.967,9.292 -2.182,15.042c0.855,2.762 2.916,4.75 5.452,5.847c3.665,1.587 6.592,1.735 9.417,-1.09c1.757,-1.759 2.615,-6.782 4.557,-11.002c1.628,-3.533 4.461,-8.92 4.461,-8.92c0.781,-0.892 2.396,-3.796 2.976,-4.956c2.723,-5.446 1.362,-10.176 -1.983,-14.373c-4.105,-5.148 -10.871,-9.937 -12.888,-10.904zM67.664,18.623c2.267,1.133 5.55,-1.981 4.375,-3.958c-0.491,-0.829 -1.077,-1.236 -2.024,-1.417c-3.182,-0.83 -4.396,4.351 -2.351,5.375zM60.646,14.111c0.847,0.615 2.144,1.439 3.698,0.539c1.463,-0.848 2.051,-3.617 0.693,-5.082c-0.854,-0.921 -1.617,-1.204 -3.063,-1.003c-2.551,0.354 -2.386,4.776 -1.328,5.546zM50.877,12.223c8.226,1.815 9.655,-9.679 3.817,-11.74c0,0 -2.932,-0.862 -4.655,-0.284c-4.457,1.491 -3.06,11.163 0.838,12.024zM71.989,22.721c0.236,0.727 0.887,0.917 1.633,1.083c2.081,0.47 5.363,-4.676 1.45,-5.275c-2.934,-0.449 -3.475,2.97 -3.083,4.192zM80.092,26.123c-0.399,-1.037 -1.401,-1.623 -2.553,-1.467c-1.534,0.209 -2.417,2.182 -1.622,3.448c0.239,0.382 0.441,0.583 0.85,0.807c1.496,0.822 3.917,-1.245 3.325,-2.788z" fill="#5F5F5F" class="fill c1"/></g><g transform="translate(359,85)translate(48,33)rotate(0)translate(-48,-33)" opacity="1"><path transform="translate(6,0)rotate(0)" d="M38.81 27.98L38.81 34.41L38.81 34.41Q38.81 37.48 37.76 40.05L37.76 40.05L37.76 40.05Q36.70 42.63 34.83 44.51L34.83 44.51L34.83 44.51Q32.95 46.38 30.39 47.43L30.39 47.43L30.39 47.43Q27.82 48.47 24.80 48.47L24.80 48.47L16.55 48.47L16.55 48.47Q13.52 48.47 10.95 47.43L10.95 47.43L10.95 47.43Q8.37 46.38 6.49 44.51L6.49 44.51L6.49 44.51Q4.62 42.63 3.55 40.05L3.55 40.05L3.55 40.05Q2.48 37.48 2.48 34.41L2.48 34.41L2.48 27.98L2.48 27.98Q2.48 24.94 3.55 22.35L3.55 22.35L3.55 22.35Q4.62 19.76 6.49 17.89L6.49 17.89L6.49 17.89Q8.37 16.03 10.95 14.98L10.95 14.98L10.95 14.98Q13.52 13.92 16.55 13.92L16.55 13.92L24.80 13.92L24.80 13.92Q27.82 13.92 30.39 14.98L30.39 14.98L30.39 14.98Q32.95 16.03 34.83 17.89L34.83 17.89L34.83 17.89Q36.70 19.76 37.76 22.35L37.76 22.35L37.76 22.35Q38.81 24.94 38.81 27.98L38.81 27.98ZM32.72 34.41L32.72 27.98L32.72 27.98Q32.72 26.18 32.14 24.71L32.14 24.71L32.14 24.71Q31.57 23.25 30.53 22.21L30.53 22.21L30.53 22.21Q29.48 21.16 28.02 20.59L28.02 20.59L28.02 20.59Q26.55 20.02 24.80 20.02L24.80 20.02L16.55 20.02L16.55 20.02Q14.77 20.02 13.30 20.59L13.30 20.59L13.30 20.59Q11.84 21.16 10.78 22.21L10.78 22.21L10.78 22.21Q9.73 23.25 9.15 24.71L9.15 24.71L9.15 24.71Q8.58 26.18 8.58 27.98L8.58 27.98L8.58 34.41L8.58 34.41Q8.58 36.21 9.15 37.68L9.15 37.68L9.15 37.68Q9.73 39.14 10.78 40.18L10.78 40.18L10.78 40.18Q11.84 41.23 13.30 41.80L13.30 41.80L13.30 41.80Q14.77 42.38 16.55 42.38L16.55 42.38L24.75 42.38L24.75 42.38Q26.53 42.38 28.00 41.80L28.00 41.80L28.00 41.80Q29.46 41.23 30.52 40.18L30.52 40.18L30.52 40.18Q31.57 39.14 32.14 37.68L32.14 37.68L32.14 37.68Q32.72 36.21 32.72 34.41L32.72 34.41ZM80.11 27.98L80.11 34.41L80.11 34.41Q80.11 37.48 79.05 40.05L79.05 40.05L79.05 40.05Q78 42.63 76.13 44.51L76.13 44.51L76.13 44.51Q74.25 46.38 71.68 47.43L71.68 47.43L71.68 47.43Q69.12 48.47 66.09 48.47L66.09 48.47L57.84 48.47L57.84 48.47Q54.82 48.47 52.24 47.43L52.24 47.43L52.24 47.43Q49.66 46.38 47.79 44.51L47.79 44.51L47.79 44.51Q45.91 42.63 44.85 40.05L44.85 40.05L44.85 40.05Q43.78 37.48 43.78 34.41L43.78 34.41L43.78 27.98L43.78 27.98Q43.78 24.94 44.85 22.35L44.85 22.35L44.85 22.35Q45.91 19.76 47.79 17.89L47.79 17.89L47.79 17.89Q49.66 16.03 52.24 14.98L52.24 14.98L52.24 14.98Q54.82 13.92 57.84 13.92L57.84 13.92L66.09 13.92L66.09 13.92Q69.12 13.92 71.68 14.98L71.68 14.98L71.68 14.98Q74.25 16.03 76.13 17.89L76.13 17.89L76.13 17.89Q78 19.76 79.05 22.35L79.05 22.35L79.05 22.35Q80.11 24.94 80.11 27.98L80.11 27.98ZM74.02 34.41L74.02 27.98L74.02 27.98Q74.02 26.18 73.44 24.71L73.44 24.71L73.44 24.71Q72.87 23.25 71.82 22.21L71.82 22.21L71.82 22.21Q70.78 21.16 69.32 20.59L69.32 20.59L69.32 20.59Q67.85 20.02 66.09 20.02L66.09 20.02L57.84 20.02L57.84 20.02Q56.06 20.02 54.60 20.59L54.60 20.59L54.60 20.59Q53.13 21.16 52.08 22.21L52.08 22.21L52.08 22.21Q51.02 23.25 50.45 24.71L50.45 24.71L50.45 24.71Q49.88 26.18 49.88 27.98L49.88 27.98L49.88 34.41L49.88 34.41Q49.88 36.21 50.45 37.68L50.45 37.68L50.45 37.68Q51.02 39.14 52.08 40.18L52.08 40.18L52.08 40.18Q53.13 41.23 54.60 41.80L54.60 41.80L54.60 41.80Q56.06 42.38 57.84 42.38L57.84 42.38L66.05 42.38L66.05 42.38Q67.83 42.38 69.29 41.80L69.29 41.80L69.29 41.80Q70.76 41.23 71.81 40.18L71.81 40.18L71.81 40.18Q72.87 39.14 73.44 37.68L73.44 37.68L73.44 37.68Q74.02 36.21 74.02 34.41L74.02 34.41Z" fill="#0ed3bb"/></g></svg>