<svg xmlns="http://www.w3.org/2000/svg" width="1920" height="1080" viewBox="0 0 1920 1080"><g transform="translate(602,492)translate(459,149)rotate(0)translate(-459,-149)" opacity="1"><path transform="translate(30,0)rotate(0)" d="M155.00 63.40L155.00 91.25L93.62 91.25L93.62 217L65.77 217L65.77 91.25L4.28 91.25L4.28 63.40L155.00 63.40ZM326.17 77.43L326.17 217L298.32 217L298.32 179.30L200.41 179.30L200.41 217L172.56 217L172.56 140.20L172.56 140.20Q172.56 123.38 178.35 109.24L178.35 109.24L178.35 109.24Q184.13 95.10 194.42 84.93L194.42 84.93L194.42 84.93Q204.70 74.75 218.73 69.07L218.73 69.07L218.73 69.07Q232.76 63.40 249.37 63.40L249.37 63.40L312.14 63.40L312.14 63.40Q315.03 63.40 317.60 64.47L317.60 64.47L317.60 64.47Q320.17 65.54 322.10 67.47L322.10 67.47L322.10 67.47Q324.03 69.39 325.10 71.97L325.10 71.97L325.10 71.97Q326.17 74.54 326.17 77.43L326.17 77.43ZM200.41 140.20L200.41 151.45L298.32 151.45L298.32 91.25L249.37 91.25L249.37 91.25Q248.08 91.25 243.96 91.62L243.96 91.62L243.96 91.62Q239.83 92.00 234.42 93.50L234.42 93.50L234.42 93.50Q229.01 95.00 223.01 98.10L223.01 98.10L223.01 98.10Q217.02 101.21 211.98 106.67L211.98 106.67L211.98 106.67Q206.95 112.13 203.68 120.33L203.68 120.33L203.68 120.33Q200.41 128.52 200.41 140.20L200.41 140.20ZM511.80 177.90L511.80 183.26L511.80 183.26Q511.80 188.40 510.03 194.29L510.03 194.29L510.03 194.29Q508.26 200.18 504.25 205.22L504.25 205.22L504.25 205.22Q500.23 210.25 493.80 213.63L493.80 213.63L493.80 213.63Q487.38 217 478.06 217L478.06 217L372.33 217L372.33 217Q369.33 217 366.76 215.93L366.76 215.93L366.76 215.93Q364.19 214.86 362.32 212.98L362.32 212.98L362.32 212.98Q360.44 211.11 359.37 208.54L359.37 208.54L359.37 208.54Q358.30 205.97 358.30 202.97L358.30 202.97L358.30 77.43L358.30 77.43Q358.30 74.54 359.37 71.97L359.37 71.97L359.37 71.97Q360.44 69.39 362.32 67.47L362.32 67.47L362.32 67.47Q364.19 65.54 366.76 64.47L366.76 64.47L366.76 64.47Q369.33 63.40 372.33 63.40L372.33 63.40L465.52 63.40L465.52 63.40Q470.67 63.40 476.56 65.22L476.56 65.22L476.56 65.22Q482.45 67.04 487.54 71.05L487.54 71.05L487.54 71.05Q492.63 75.07 496.00 81.50L496.00 81.50L496.00 81.50Q499.37 87.93 499.37 97.24L499.37 97.24L499.37 102.49L499.37 102.49Q499.37 109.88 496.91 118.40L496.91 118.40L496.91 118.40Q494.45 126.92 488.98 134.52L488.98 134.52L488.98 134.52Q493.70 137.41 497.82 141.48L497.82 141.48L497.82 141.48Q501.94 145.55 505.05 150.91L505.05 150.91L505.05 150.91Q508.16 156.27 509.98 163.01L509.98 163.01L509.98 163.01Q511.80 169.76 511.80 177.90L511.80 177.90ZM483.95 183.04L483.95 177.90L483.95 177.90Q483.95 172.44 482.23 168.10L482.23 168.10L482.23 168.10Q480.52 163.76 477.41 160.66L477.41 160.66L477.41 160.66Q474.31 157.55 469.92 155.89L469.92 155.89L469.92 155.89Q465.52 154.23 460.06 154.23L460.06 154.23L397.29 154.23L397.29 126.17L447.53 126.17L447.53 126.17Q452.99 126.17 457.38 124.51L457.38 124.51L457.38 124.51Q461.78 122.85 464.88 119.74L464.88 119.74L464.88 119.74Q467.99 116.63 469.65 112.29L469.65 112.29L469.65 112.29Q471.31 107.96 471.31 102.49L471.31 102.49L471.31 97.24L471.31 97.24Q471.31 91.25 465.52 91.25L465.52 91.25L386.15 91.25L386.15 189.15L478.06 189.15L478.06 189.15Q478.81 189.15 479.88 189.04L479.88 189.04L479.88 189.04Q480.95 188.94 481.81 188.40L481.81 188.40L481.81 188.40Q482.66 187.86 483.31 186.58L483.31 186.58L483.31 186.58Q483.95 185.29 483.95 183.04L483.95 183.04ZM686.72 77.43L686.72 217L658.87 217L658.87 179.30L560.96 179.30L560.96 217L533.11 217L533.11 140.20L533.11 140.20Q533.11 123.38 538.90 109.24L538.90 109.24L538.90 109.24Q544.68 95.10 554.97 84.93L554.97 84.93L554.97 84.93Q565.25 74.75 579.28 69.07L579.28 69.07L579.28 69.07Q593.31 63.40 609.92 63.40L609.92 63.40L672.69 63.40L672.69 63.40Q675.58 63.40 678.15 64.47L678.15 64.47L678.15 64.47Q680.72 65.54 682.65 67.47L682.65 67.47L682.65 67.47Q684.58 69.39 685.65 71.97L685.65 71.97L685.65 71.97Q686.72 74.54 686.72 77.43L686.72 77.43ZM560.96 140.20L560.96 151.45L658.87 151.45L658.87 91.25L609.92 91.25L609.92 91.25Q608.63 91.25 604.51 91.62L604.51 91.62L604.51 91.62Q600.38 92.00 594.97 93.50L594.97 93.50L594.97 93.50Q589.56 95.00 583.57 98.10L583.57 98.10L583.57 98.10Q577.57 101.21 572.53 106.67L572.53 106.67L572.53 106.67Q567.50 112.13 564.23 120.33L564.23 120.33L564.23 120.33Q560.96 128.52 560.96 140.20L560.96 140.20ZM857.89 63.40L857.89 91.25L796.51 91.25L796.51 217L768.66 217L768.66 91.25L707.18 91.25L707.18 63.40L857.89 63.40Z" fill="#5F5F5F"/></g><g transform="translate(936,746)translate(471,60)rotate(0)translate(-471,-60)" opacity="1"><path transform="translate(27,0)rotate(0)" d="M55.03 52.27L55.03 84.17L55.03 84.17Q43.14 86.91 33.18 86.91L33.18 86.91L33.18 86.91Q29.43 86.91 26.10 86.59L26.10 86.59L26.10 86.59Q22.76 86.27 18.92 85.22L18.92 85.22L18.92 85.22Q15.08 84.17 12.29 82.48L12.29 82.48L12.29 82.48Q9.51 80.79 7.68 77.77L7.68 77.77L7.68 77.77Q5.85 74.76 5.85 70.83L5.85 70.83L5.85 42.77L5.85 42.77Q5.85 37.56 8.55 33.94L8.55 33.94L8.55 33.94Q11.24 30.33 15.81 28.69L15.81 28.69L15.81 28.69Q20.38 27.04 24.50 26.40L24.50 26.40L24.50 26.40Q28.61 25.76 33.18 25.76L33.18 25.76L33.18 25.76Q44.15 25.76 53.65 27.23L53.65 27.23L53.65 34.08L53.65 34.08Q50.18 33.26 43.69 32.57L43.69 32.57L43.69 32.57Q37.20 31.89 33.36 31.89L33.36 31.89L33.36 31.89Q14.62 31.89 14.62 42.67L14.62 42.67L14.62 70.64L14.62 70.64Q14.62 73.66 16.41 75.81L16.41 75.81L16.41 75.81Q18.19 77.96 21.25 79.01L21.25 79.01L21.25 79.01Q24.31 80.06 27.28 80.47L27.28 80.47L27.28 80.47Q30.26 80.88 33.73 80.88L33.73 80.88L33.73 80.88Q39.85 80.88 46.80 79.24L46.80 79.24L46.80 58.49L32.91 58.49L32.91 52.27L55.03 52.27ZM127.14 38.38L127.14 38.38L127.14 50.72L127.14 50.72Q127.14 58.30 121.25 61.46L121.25 61.46L121.25 61.46Q115.35 64.61 104.57 64.61L104.57 64.61L95.70 64.61L95.70 86L86.84 86L86.84 26.68L106.21 26.68L106.21 26.68Q109.87 26.68 112.52 26.86L112.52 26.86L112.52 26.86Q115.17 27.04 118.14 27.73L118.14 27.73L118.14 27.73Q121.11 28.41 122.89 29.65L122.89 29.65L122.89 29.65Q124.68 30.88 125.91 33.08L125.91 33.08L125.91 33.08Q127.14 35.27 127.14 38.38ZM118.46 50.26L118.46 50.26L118.46 39.47L118.46 39.47Q118.46 37.01 117.18 35.41L117.18 35.41L117.18 35.41Q115.90 33.81 113.53 33.17L113.53 33.17L113.53 33.17Q111.15 32.53 109.55 32.39L109.55 32.39L109.55 32.39Q107.95 32.25 105.57 32.25L105.57 32.25L95.61 32.25L95.61 59.04L105.76 59.04L105.76 59.04Q111.06 59.04 114.76 57.07L114.76 57.07L114.76 57.07Q118.46 55.10 118.46 50.26ZM196.52 65.89L196.52 65.89L196.52 70.19L196.52 70.19Q196.52 79.69 191.13 83.30L191.13 83.30L191.13 83.30Q185.74 86.91 174.31 86.91L174.31 86.91L174.31 86.91Q167.00 86.91 156.21 85.45L156.21 85.45L156.21 78.05L156.21 78.05Q167.00 80.33 174.86 80.33L174.86 80.33L174.86 80.33Q181.17 80.33 184.50 78.92L184.50 78.92L184.50 78.92Q187.84 77.50 187.84 73.20L187.84 73.20L187.84 65.53L187.84 65.53Q187.84 61.78 185.69 60.18L185.69 60.18L185.69 60.18Q183.54 58.58 177.97 58.58L177.97 58.58L171.02 58.58L171.02 58.58Q162.06 58.58 158.54 54.97L158.54 54.97L158.54 54.97Q155.02 51.36 155.02 44.32L155.02 44.32L155.02 39.57L155.02 39.57Q155.02 32.53 160.01 29.15L160.01 29.15L160.01 29.15Q164.99 25.76 178.33 25.76L178.33 25.76L178.33 25.76Q184.73 25.76 193.60 26.77L193.60 26.77L193.60 33.44L193.60 33.44Q183.45 31.89 177.69 31.89L177.69 31.89L177.69 31.89Q169.19 31.89 166.40 33.58L166.40 33.58L166.40 33.58Q163.62 35.27 163.62 39.29L163.62 39.29L163.62 46.06L163.62 46.06Q163.62 49.16 165.81 50.58L165.81 50.58L165.81 50.58Q168.00 52.00 173.58 52.00L173.58 52.00L180.71 52.00L180.71 52.00Q189.94 52.00 193.23 55.33L193.23 55.33L193.23 55.33Q196.52 58.67 196.52 65.89ZM306.12 65.89L306.12 65.89L306.12 70.19L306.12 70.19Q306.12 79.69 300.72 83.30L300.72 83.30L300.72 83.30Q295.33 86.91 283.91 86.91L283.91 86.91L283.91 86.91Q276.59 86.91 265.81 85.45L265.81 85.45L265.81 78.05L265.81 78.05Q276.59 80.33 284.45 80.33L284.45 80.33L284.45 80.33Q290.76 80.33 294.10 78.92L294.10 78.92L294.10 78.92Q297.43 77.50 297.43 73.20L297.43 73.20L297.43 65.53L297.43 65.53Q297.43 61.78 295.29 60.18L295.29 60.18L295.29 60.18Q293.14 58.58 287.56 58.58L287.56 58.58L280.61 58.58L280.61 58.58Q271.66 58.58 268.14 54.97L268.14 54.97L268.14 54.97Q264.62 51.36 264.62 44.32L264.62 44.32L264.62 39.57L264.62 39.57Q264.62 32.53 269.60 29.15L269.60 29.15L269.60 29.15Q274.58 25.76 287.93 25.76L287.93 25.76L287.93 25.76Q294.33 25.76 303.19 26.77L303.19 26.77L303.19 33.44L303.19 33.44Q293.05 31.89 287.29 31.89L287.29 31.89L287.29 31.89Q278.79 31.89 276.00 33.58L276.00 33.58L276.00 33.58Q273.21 35.27 273.21 39.29L273.21 39.29L273.21 46.06L273.21 46.06Q273.21 49.16 275.40 50.58L275.40 50.58L275.40 50.58Q277.60 52.00 283.17 52.00L283.17 52.00L290.30 52.00L290.30 52.00Q299.54 52.00 302.83 55.33L302.83 55.33L302.83 55.33Q306.12 58.67 306.12 65.89ZM385.46 42.67L385.46 42.67L385.46 70.83L385.46 70.83Q385.46 75.67 383.13 79.05L383.13 79.05L383.13 79.05Q380.79 82.44 376.77 84.03L376.77 84.03L376.77 84.03Q372.75 85.63 368.82 86.27L368.82 86.27L368.82 86.27Q364.89 86.91 360.32 86.91L360.32 86.91L360.32 86.91Q335.46 86.91 335.46 70.83L335.46 70.83L335.46 42.77L335.46 42.77Q335.46 25.76 360.32 25.76L360.32 25.76L360.32 25.76Q385.46 25.76 385.46 42.67ZM376.86 70.74L376.86 70.74L376.86 42.49L376.86 42.49Q376.86 31.52 360.41 31.52L360.41 31.52L360.41 31.52Q356.94 31.52 354.29 31.93L354.29 31.93L354.29 31.93Q351.64 32.35 349.17 33.49L349.17 33.49L349.17 33.49Q346.70 34.63 345.33 36.87L345.33 36.87L345.33 36.87Q343.96 39.11 343.96 42.49L343.96 42.49L343.96 70.74L343.96 70.74Q343.96 80.97 360.50 80.97L360.50 80.97L360.50 80.97Q376.86 80.97 376.86 70.74ZM455.47 79.78L455.47 86L417.45 86L417.45 26.68L426.31 26.68L426.31 79.78L455.47 79.78ZM521.10 26.68L529.60 26.68L529.60 70.83L529.60 70.83Q529.60 86.91 506.39 86.91L506.39 86.91L506.39 86.91Q501.72 86.91 498.07 86.32L498.07 86.32L498.07 86.32Q494.41 85.73 490.85 84.13L490.85 84.13L490.85 84.13Q487.28 82.53 485.27 79.14L485.27 79.14L485.27 79.14Q483.26 75.76 483.26 70.83L483.26 70.83L483.26 26.68L491.76 26.68L491.76 70.74L491.76 70.74Q491.76 76.59 495.69 78.78L495.69 78.78L495.69 78.78Q499.62 80.97 506.57 80.97L506.57 80.97L506.57 80.97Q513.52 80.97 517.31 78.78L517.31 78.78L517.31 78.78Q521.10 76.59 521.10 70.74L521.10 70.74L521.10 26.68ZM606.93 26.68L606.93 32.89L586.91 32.89L586.91 86L577.96 86L577.96 32.89L557.85 32.89L557.85 26.68L606.93 26.68ZM643.95 26.68L643.95 86L635.08 86L635.08 26.68L643.95 26.68ZM725.94 42.67L725.94 42.67L725.94 70.83L725.94 70.83Q725.94 75.67 723.61 79.05L723.61 79.05L723.61 79.05Q721.28 82.44 717.26 84.03L717.26 84.03L717.26 84.03Q713.24 85.63 709.31 86.27L709.31 86.27L709.31 86.27Q705.38 86.91 700.81 86.91L700.81 86.91L700.81 86.91Q675.94 86.91 675.94 70.83L675.94 70.83L675.94 42.77L675.94 42.77Q675.94 25.76 700.81 25.76L700.81 25.76L700.81 25.76Q725.94 25.76 725.94 42.67ZM717.35 70.74L717.35 70.74L717.35 42.49L717.35 42.49Q717.35 31.52 700.90 31.52L700.90 31.52L700.90 31.52Q697.42 31.52 694.77 31.93L694.77 31.93L694.77 31.93Q692.12 32.35 689.65 33.49L689.65 33.49L689.65 33.49Q687.19 34.63 685.81 36.87L685.81 36.87L685.81 36.87Q684.44 39.11 684.44 42.49L684.44 42.49L684.44 70.74L684.44 70.74Q684.44 80.97 700.99 80.97L700.99 80.97L700.99 80.97Q717.35 80.97 717.35 70.74ZM808.66 26.68L808.66 86L797.97 86L765.70 36.18L765.70 86L757.93 86L757.93 26.68L768.63 26.68L800.89 75.67L800.89 26.68L808.66 26.68ZM881.61 65.89L881.61 65.89L881.61 70.19L881.61 70.19Q881.61 79.69 876.21 83.30L876.21 83.30L876.21 83.30Q870.82 86.91 859.39 86.91L859.39 86.91L859.39 86.91Q852.08 86.91 841.30 85.45L841.30 85.45L841.30 78.05L841.30 78.05Q852.08 80.33 859.94 80.33L859.94 80.33L859.94 80.33Q866.25 80.33 869.59 78.92L869.59 78.92L869.59 78.92Q872.92 77.50 872.92 73.20L872.92 73.20L872.92 65.53L872.92 65.53Q872.92 61.78 870.77 60.18L870.77 60.18L870.77 60.18Q868.63 58.58 863.05 58.58L863.05 58.58L856.10 58.58L856.10 58.58Q847.15 58.58 843.63 54.97L843.63 54.97L843.63 54.97Q840.11 51.36 840.11 44.32L840.11 44.32L840.11 39.57L840.11 39.57Q840.11 32.53 845.09 29.15L845.09 29.15L845.09 29.15Q850.07 25.76 863.42 25.76L863.42 25.76L863.42 25.76Q869.81 25.76 878.68 26.77L878.68 26.77L878.68 33.44L878.68 33.44Q868.53 31.89 862.78 31.89L862.78 31.89L862.78 31.89Q854.27 31.89 851.49 33.58L851.49 33.58L851.49 33.58Q848.70 35.27 848.70 39.29L848.70 39.29L848.70 46.06L848.70 46.06Q848.70 49.16 850.89 50.58L850.89 50.58L850.89 50.58Q853.09 52.00 858.66 52.00L858.66 52.00L865.79 52.00L865.79 52.00Q875.02 52.00 878.31 55.33L878.31 55.33L878.31 55.33Q881.61 58.67 881.61 65.89Z" fill="#212224"/></g><g transform="translate(21,454)translate(301.5,190)rotate(0)translate(-301.5,-190) scale(4.360811993317761,4.360811993317761)" opacity="1"><defs class="defs"/><path fill="#969696" d="M100.283,15.859c3.904,1.008,8.627,1.6,13.719,1.6c13.406,0,24.275-4.092,24.275-9.137&#10;&#9;c0-3.701-5.853-6.887-14.258-8.322c-0.586,0.773-1.142,1.496-1.662,2.163c4.092,1.026,6.781,2.763,6.781,4.73&#10;&#9;c0,3.154-6.904,5.711-15.423,5.711c-8.516,0-15.422-2.557-15.422-5.711c0-2.043,2.908-3.831,7.267-4.841&#10;&#9;c-0.496-0.637-1.023-1.32-1.576-2.053C95.58,1.436,89.729,4.621,89.729,8.322c0,1.436,0.881,2.792,2.446,4&#10;&#9;c-26.043,5.076-39.559,8.884-39.393,17.76c0.191,10.336,18.977,13.184,42.826,16.796c9.338,1.418,30.402,4.617,34.627,7.822&#10;&#9;c-3.531,1.948-18.824,7.303-84.178,19.25c-2.488-1.9-6.685-3.431-11.832-4.304c-0.586,0.773-1.144,1.496-1.662,2.16&#10;&#9;c4.127,1.025,6.844,2.769,6.844,4.746c0,3.154-6.904,5.711-15.42,5.711s-15.42-2.557-15.42-5.711c0-2.053,2.936-3.848,7.33-4.854&#10;&#9;c-0.496-0.636-1.021-1.316-1.576-2.05C5.881,71.08,0,74.273,0,77.984c0,5.045,10.869,9.137,24.273,9.137&#10;&#9;c12.867,0,23.389-3.77,24.217-8.533c87.438-16.035,87.373-20.389,87.313-23.572c-0.113-6.123-11.722-8.871-39.513-13.089&#10;&#9;c-17.998-2.728-38.395-5.818-38.51-11.936C57.672,24.081,79.908,19.707,100.283,15.859z" class="color c1"/></g><g transform="translate(417,214)translate(101,134.5)rotate(0)translate(-101,-134.5) scale(4.144014770745717,4.144014770745717)" opacity="1"><defs class="defs"/><path fill="#0ED3BB" d="M24.373,0C10.912,0,0,10.912,0,24.371c0,14.998,21.426,39.72,21.426,39.72c1.619,1.869,4.274,1.869,5.893,0&#10;&#9;c0,0,21.426-24.723,21.426-39.72C48.745,10.912,37.834,0,24.373,0z M24.373,34.664c-5.684,0-10.293-4.609-10.293-10.292&#10;&#9;c0-5.685,4.609-10.289,10.293-10.289c5.686,0,10.292,4.605,10.292,10.289C34.665,30.053,30.059,34.664,24.373,34.664z" class="color c1"/></g><g transform="translate(32,526)translate(101,134.5)rotate(0)translate(-101,-134.5) scale(4.144014770745717,4.144014770745717)" opacity="1"><defs class="defs"/><path fill="#0ED3BB" d="M24.373,0C10.912,0,0,10.912,0,24.371c0,14.998,21.426,39.72,21.426,39.72c1.619,1.869,4.274,1.869,5.893,0&#10;&#9;c0,0,21.426-24.723,21.426-39.72C48.745,10.912,37.834,0,24.373,0z M24.373,34.664c-5.684,0-10.293-4.609-10.293-10.292&#10;&#9;c0-5.685,4.609-10.289,10.293-10.289c5.686,0,10.292,4.605,10.292,10.289C34.665,30.053,30.059,34.664,24.373,34.664z" class="color c1"/></g><g transform="translate(1614,244)translate(113.5,141.5)rotate(0)translate(-113.5,-141.5) scale(2.8310210326256793,2.8310210326256793)" opacity="1"><defs class="defs"/><path transform="translate(-0.000300868860731756,0.0004718029349308206)" d="M30.439,65.072c0.999,-5.099 2.728,-9.036 2.206,-14.273c-0.655,-6.554 -8.979,-4.239 -11.201,-3.172c-2.015,0.968 -8.784,5.755 -12.885,10.904c-3.346,4.198 -4.705,8.927 -1.984,14.372c0.58,1.162 2.193,4.065 2.974,4.957c0,0 2.834,5.388 4.462,8.921c1.941,4.219 2.798,9.24 4.559,11.003c2.822,2.821 5.75,2.676 9.417,1.091c2.537,-1.097 4.595,-3.084 5.452,-5.85c1.784,-5.748 -0.681,-9.703 -2.181,-15.043c-0.674,-2.396 -1.253,-10.69 -0.819,-12.91zM12.52,49.041c2.047,-1.023 0.83,-6.203 -2.351,-5.374c-0.946,0.18 -1.532,0.589 -2.024,1.417c-1.177,1.978 2.108,5.09 4.375,3.957zM15.839,45.069c1.554,0.898 2.851,0.076 3.699,-0.54c1.058,-0.769 1.221,-5.19 -1.329,-5.545c-1.446,-0.202 -2.209,0.08 -3.062,1.002c-1.359,1.466 -0.771,4.235 0.692,5.083zM29.304,42.642c3.9,-0.862 5.296,-10.533 0.84,-12.025c-1.725,-0.576 -4.655,0.286 -4.655,0.286c-5.838,2.06 -4.408,13.555 3.815,11.739zM6.562,54.225c0.746,-0.169 1.396,-0.359 1.631,-1.084c0.394,-1.226 -0.146,-4.644 -3.083,-4.194c-3.913,0.601 -0.629,5.746 1.452,5.278zM2.643,55.074c-1.152,-0.157 -2.153,0.43 -2.551,1.467c-0.593,1.542 1.827,3.61 3.325,2.787c0.407,-0.223 0.612,-0.424 0.85,-0.807c0.795,-1.265 -0.088,-3.24 -1.624,-3.447zM58.739,17.208c-2.222,-1.067 -10.546,-3.38 -11.201,3.172c-0.521,5.238 1.209,9.175 2.206,14.272c0.434,2.222 -0.144,10.515 -0.815,12.912c-1.5,5.338 -3.967,9.292 -2.182,15.042c0.855,2.762 2.916,4.75 5.452,5.847c3.665,1.587 6.592,1.735 9.417,-1.09c1.757,-1.759 2.615,-6.782 4.557,-11.002c1.628,-3.533 4.461,-8.92 4.461,-8.92c0.781,-0.892 2.396,-3.796 2.976,-4.956c2.723,-5.446 1.362,-10.176 -1.983,-14.373c-4.105,-5.148 -10.871,-9.937 -12.888,-10.904zM67.664,18.623c2.267,1.133 5.55,-1.981 4.375,-3.958c-0.491,-0.829 -1.077,-1.236 -2.024,-1.417c-3.182,-0.83 -4.396,4.351 -2.351,5.375zM60.646,14.111c0.847,0.615 2.144,1.439 3.698,0.539c1.463,-0.848 2.051,-3.617 0.693,-5.082c-0.854,-0.921 -1.617,-1.204 -3.063,-1.003c-2.551,0.354 -2.386,4.776 -1.328,5.546zM50.877,12.223c8.226,1.815 9.655,-9.679 3.817,-11.74c0,0 -2.932,-0.862 -4.655,-0.284c-4.457,1.491 -3.06,11.163 0.838,12.024zM71.989,22.721c0.236,0.727 0.887,0.917 1.633,1.083c2.081,0.47 5.363,-4.676 1.45,-5.275c-2.934,-0.449 -3.475,2.97 -3.083,4.192zM80.092,26.123c-0.399,-1.037 -1.401,-1.623 -2.553,-1.467c-1.534,0.209 -2.417,2.182 -1.622,3.448c0.239,0.382 0.441,0.583 0.85,0.807c1.496,0.822 3.917,-1.245 3.325,-2.788z" fill="#5F5F5F" class="fill c1"/></g><g transform="translate(1463,497)translate(217,149)rotate(0)translate(-217,-149)" opacity="1"><path transform="translate(27,0)rotate(0)" d="M177.38 125.52L177.38 154.87L177.38 154.87Q177.38 168.91 172.56 180.69L172.56 180.69L172.56 180.69Q167.74 192.47 159.17 201.04L159.17 201.04L159.17 201.04Q150.60 209.61 138.88 214.38L138.88 214.38L138.88 214.38Q127.15 219.14 113.33 219.14L113.33 219.14L75.62 219.14L75.62 219.14Q61.81 219.14 50.02 214.38L50.02 214.38L50.02 214.38Q38.24 209.61 29.67 201.04L29.67 201.04L29.67 201.04Q21.10 192.47 16.23 180.69L16.23 180.69L16.23 180.69Q11.35 168.91 11.35 154.87L11.35 154.87L11.35 125.52L11.35 125.52Q11.35 111.60 16.23 99.76L16.23 99.76L16.23 99.76Q21.10 87.93 29.67 79.41L29.67 79.41L29.67 79.41Q38.24 70.89 50.02 66.07L50.02 66.07L50.02 66.07Q61.81 61.25 75.62 61.25L75.62 61.25L113.33 61.25L113.33 61.25Q127.15 61.25 138.88 66.07L138.88 66.07L138.88 66.07Q150.60 70.89 159.17 79.41L159.17 79.41L159.17 79.41Q167.74 87.93 172.56 99.76L172.56 99.76L172.56 99.76Q177.38 111.60 177.38 125.52L177.38 125.52ZM149.53 154.87L149.53 125.52L149.53 125.52Q149.53 117.28 146.91 110.58L146.91 110.58L146.91 110.58Q144.28 103.89 139.52 99.12L139.52 99.12L139.52 99.12Q134.75 94.35 128.06 91.73L128.06 91.73L128.06 91.73Q121.36 89.10 113.33 89.10L113.33 89.10L75.62 89.10L75.62 89.10Q67.48 89.10 60.79 91.73L60.79 91.73L60.79 91.73Q54.09 94.35 49.27 99.12L49.27 99.12L49.27 99.12Q44.45 103.89 41.83 110.58L41.83 110.58L41.83 110.58Q39.20 117.28 39.20 125.52L39.20 125.52L39.20 154.87L39.20 154.87Q39.20 163.12 41.83 169.82L41.83 169.82L41.83 169.82Q44.45 176.51 49.27 181.28L49.27 181.28L49.27 181.28Q54.09 186.04 60.79 188.67L60.79 188.67L60.79 188.67Q67.48 191.29 75.62 191.29L75.62 191.29L113.11 191.29L113.11 191.29Q121.25 191.29 127.95 188.67L127.95 188.67L127.95 188.67Q134.64 186.04 139.46 181.28L139.46 181.28L139.46 181.28Q144.28 176.51 146.91 169.82L146.91 169.82L146.91 169.82Q149.53 163.12 149.53 154.87L149.53 154.87ZM366.12 125.52L366.12 154.87L366.12 154.87Q366.12 168.91 361.30 180.69L361.30 180.69L361.30 180.69Q356.48 192.47 347.91 201.04L347.91 201.04L347.91 201.04Q339.34 209.61 327.61 214.38L327.61 214.38L327.61 214.38Q315.88 219.14 302.07 219.14L302.07 219.14L264.36 219.14L264.36 219.14Q250.54 219.14 238.76 214.38L238.76 214.38L238.76 214.38Q226.98 209.61 218.41 201.04L218.41 201.04L218.41 201.04Q209.84 192.47 204.97 180.69L204.97 180.69L204.97 180.69Q200.09 168.91 200.09 154.87L200.09 154.87L200.09 125.52L200.09 125.52Q200.09 111.60 204.97 99.76L204.97 99.76L204.97 99.76Q209.84 87.93 218.41 79.41L218.41 79.41L218.41 79.41Q226.98 70.89 238.76 66.07L238.76 66.07L238.76 66.07Q250.54 61.25 264.36 61.25L264.36 61.25L302.07 61.25L302.07 61.25Q315.88 61.25 327.61 66.07L327.61 66.07L327.61 66.07Q339.34 70.89 347.91 79.41L347.91 79.41L347.91 79.41Q356.48 87.93 361.30 99.76L361.30 99.76L361.30 99.76Q366.12 111.60 366.12 125.52L366.12 125.52ZM338.27 154.87L338.27 125.52L338.27 125.52Q338.27 117.28 335.65 110.58L335.65 110.58L335.65 110.58Q333.02 103.89 328.26 99.12L328.26 99.12L328.26 99.12Q323.49 94.35 316.79 91.73L316.79 91.73L316.79 91.73Q310.10 89.10 302.07 89.10L302.07 89.10L264.36 89.10L264.36 89.10Q256.22 89.10 249.53 91.73L249.53 91.73L249.53 91.73Q242.83 94.35 238.01 99.12L238.01 99.12L238.01 99.12Q233.19 103.89 230.57 110.58L230.57 110.58L230.57 110.58Q227.94 117.28 227.94 125.52L227.94 125.52L227.94 154.87L227.94 154.87Q227.94 163.12 230.57 169.82L230.57 169.82L230.57 169.82Q233.19 176.51 238.01 181.28L238.01 181.28L238.01 181.28Q242.83 186.04 249.53 188.67L249.53 188.67L249.53 188.67Q256.22 191.29 264.36 191.29L264.36 191.29L301.85 191.29L301.85 191.29Q309.99 191.29 316.69 188.67L316.69 188.67L316.69 188.67Q323.38 186.04 328.20 181.28L328.20 181.28L328.20 181.28Q333.02 176.51 335.65 169.82L335.65 169.82L335.65 169.82Q338.27 163.12 338.27 154.87L338.27 154.87Z" fill="#0ed3bb"/></g></svg>